<svg width="132" height="34" viewBox="0 0 132 34" fill="none" xmlns="http://www.w3.org/2000/svg">
<path d="M8.60625 19.6687C7.925 19.6687 7.29688 19.8344 6.72188 20.1656C6.14688 20.4906 5.65313 20.9406 5.24063 21.5156L5.22188 21.2906L5.11875 19.8562H2.69063V30H5.29688V23.9062C5.41563 23.6187 5.56563 23.3687 5.74688 23.1562C5.92813 22.9437 6.14688 22.7687 6.40313 22.6312C6.61563 22.5125 6.85625 22.425 7.125 22.3687C7.4 22.3062 7.70625 22.275 8.04375 22.275C8.36875 22.275 8.70938 22.2969 9.06563 22.3406C9.42813 22.3781 9.78125 22.4375 10.125 22.5187L10.5094 19.9219C10.3031 19.8594 10.0313 19.8031 9.69375 19.7531C9.3625 19.6969 9 19.6687 8.60625 19.6687ZM12.4969 24.8344V25.0312C12.4969 25.775 12.6031 26.4625 12.8156 27.0937C13.0281 27.7187 13.3406 28.2625 13.7531 28.725C14.1594 29.1875 14.6594 29.55 15.2531 29.8125C15.8531 30.0688 16.5344 30.1969 17.2969 30.1969C18.0531 30.1969 18.7281 30.0688 19.3219 29.8125C19.9156 29.55 20.4156 29.1875 20.8219 28.725C21.2281 28.2625 21.5375 27.7187 21.75 27.0937C21.9625 26.4625 22.0688 25.775 22.0688 25.0312V24.8344C22.0688 24.0969 21.9625 23.4156 21.75 22.7906C21.5375 22.1594 21.2281 21.6125 20.8219 21.15C20.4094 20.6875 19.9063 20.325 19.3125 20.0625C18.7188 19.8 18.0406 19.6687 17.2781 19.6687C16.5156 19.6687 15.8375 19.8 15.2438 20.0625C14.6563 20.325 14.1594 20.6875 13.7531 21.15C13.3406 21.6125 13.0281 22.1594 12.8156 22.7906C12.6031 23.4156 12.4969 24.0969 12.4969 24.8344ZM15.1031 25.0312V24.8344C15.1031 24.4219 15.1438 24.0312 15.225 23.6625C15.3063 23.2937 15.4344 22.9687 15.6094 22.6875C15.7844 22.4062 16.0094 22.1844 16.2844 22.0219C16.5594 21.8594 16.8906 21.7781 17.2781 21.7781C17.6719 21.7781 18.0063 21.8594 18.2813 22.0219C18.5563 22.1844 18.7813 22.4062 18.9563 22.6875C19.125 22.9687 19.25 23.2937 19.3313 23.6625C19.4125 24.0312 19.4531 24.4219 19.4531 24.8344V25.0312C19.4531 25.4562 19.4125 25.8562 19.3313 26.2312C19.25 26.6 19.125 26.9219 18.9563 27.1969C18.7813 27.4781 18.5563 27.7 18.2813 27.8625C18.0063 28.025 17.6781 28.1062 17.2969 28.1062C16.9031 28.1062 16.5656 28.025 16.2844 27.8625C16.0094 27.7 15.7844 27.4781 15.6094 27.1969C15.4344 26.9219 15.3063 26.6 15.225 26.2312C15.1438 25.8562 15.1031 25.4562 15.1031 25.0312ZM33.525 25.0312V24.8344C33.525 24.2219 33.4688 23.6469 33.3563 23.1094C33.25 22.5719 33.0844 22.0875 32.8594 21.6562C32.7156 21.3875 32.55 21.1406 32.3625 20.9156C32.175 20.6844 31.9656 20.4875 31.7344 20.325C31.4469 20.1125 31.1188 19.95 30.75 19.8375C30.3875 19.725 29.9875 19.6687 29.55 19.6687C29.2313 19.6687 28.9344 19.7031 28.6594 19.7719C28.3906 19.8344 28.1406 19.9312 27.9094 20.0625C27.7469 20.15 27.5938 20.2562 27.45 20.3812C27.3063 20.5 27.1719 20.6312 27.0469 20.775V15.6H24.4406V30H26.7844L26.9063 28.9219C27.0125 29.0594 27.125 29.1875 27.2438 29.3062C27.3625 29.4187 27.4906 29.5219 27.6281 29.6156C27.8844 29.8031 28.1719 29.9437 28.4906 30.0375C28.8156 30.1375 29.175 30.1875 29.5688 30.1875C30 30.1875 30.3938 30.1313 30.75 30.0188C31.1125 29.9125 31.4375 29.7562 31.725 29.55C32.0438 29.3312 32.3188 29.0562 32.55 28.725C32.7875 28.3937 32.9781 28.025 33.1219 27.6187C33.2531 27.25 33.3531 26.85 33.4219 26.4187C33.4906 25.9812 33.525 25.5187 33.525 25.0312ZM30.9188 24.8344V25.0312C30.9188 25.2937 30.9063 25.5469 30.8813 25.7906C30.8625 26.0344 30.8281 26.2594 30.7781 26.4656C30.7156 26.7469 30.6219 27 30.4969 27.225C30.3781 27.4437 30.2219 27.6219 30.0281 27.7594C29.8906 27.8594 29.7281 27.9375 29.5406 27.9937C29.3531 28.05 29.1438 28.0781 28.9125 28.0781C28.6438 28.0781 28.4031 28.0469 28.1906 27.9844C27.9844 27.9219 27.8031 27.8312 27.6469 27.7125C27.5156 27.6187 27.4 27.5094 27.3 27.3844C27.2063 27.2531 27.1219 27.1094 27.0469 26.9531V22.9125C27.1031 22.7937 27.1656 22.6844 27.2344 22.5844C27.3031 22.4781 27.3781 22.3844 27.4594 22.3031C27.6281 22.1344 27.8313 22.0062 28.0688 21.9187C28.3063 21.8312 28.5813 21.7875 28.8938 21.7875C29.125 21.7875 29.3313 21.8156 29.5125 21.8719C29.6938 21.9219 29.8563 22 30 22.1062C30.2188 22.275 30.3813 22.4625 30.4875 22.6687C30.6 22.8687 30.6906 23.0969 30.7594 23.3531C30.8156 23.5719 30.8563 23.8062 30.8813 24.0562C30.9063 24.3062 30.9188 24.5656 30.9188 24.8344ZM42.4594 27.2156C42.4594 27.3719 42.4188 27.5156 42.3375 27.6469C42.2625 27.7781 42.1469 27.8937 41.9906 27.9937C41.8281 28.0937 41.6188 28.175 41.3625 28.2375C41.1125 28.2937 40.8188 28.3219 40.4813 28.3219C40.2 28.3219 39.925 28.2937 39.6563 28.2375C39.3938 28.1812 39.1594 28.0906 38.9531 27.9656C38.7469 27.8469 38.5781 27.6906 38.4469 27.4969C38.3156 27.2969 38.2406 27.0594 38.2219 26.7844H35.7375C35.7375 27.1969 35.8375 27.6094 36.0375 28.0219C36.2438 28.4281 36.5438 28.7906 36.9375 29.1094C37.3313 29.4344 37.8188 29.6969 38.4 29.8969C38.9875 30.0969 39.6625 30.1969 40.425 30.1969C41.1188 30.1969 41.7469 30.1219 42.3094 29.9719C42.8719 29.8156 43.3531 29.6 43.7531 29.325C44.1469 29.05 44.45 28.725 44.6625 28.35C44.8813 27.9687 44.9906 27.5531 44.9906 27.1031C44.9906 26.6156 44.8813 26.1969 44.6625 25.8469C44.45 25.4906 44.1531 25.1875 43.7719 24.9375C43.3906 24.6937 42.9375 24.4937 42.4125 24.3375C41.8875 24.1812 41.3188 24.0531 40.7063 23.9531C40.2813 23.8906 39.9313 23.8187 39.6563 23.7375C39.3813 23.65 39.1656 23.5531 39.0094 23.4469C38.8469 23.3469 38.7344 23.2344 38.6719 23.1094C38.6094 22.9781 38.5781 22.8375 38.5781 22.6875C38.5781 22.5375 38.6125 22.3969 38.6813 22.2656C38.7563 22.1281 38.8625 22.0094 39 21.9094C39.15 21.7969 39.3438 21.7094 39.5813 21.6469C39.8188 21.5844 40.0969 21.5531 40.4156 21.5531C40.7906 21.5531 41.1094 21.6 41.3719 21.6937C41.6406 21.7875 41.8531 21.9125 42.0094 22.0687C42.1219 22.1875 42.2063 22.3219 42.2625 22.4719C42.3188 22.6156 42.3469 22.7719 42.3469 22.9406H44.9531C44.9531 22.4719 44.85 22.0375 44.6438 21.6375C44.4375 21.2375 44.1406 20.8906 43.7531 20.5969C43.3594 20.3094 42.8813 20.0844 42.3188 19.9219C41.7563 19.7531 41.1219 19.6687 40.4156 19.6687C39.7406 19.6687 39.1344 19.7531 38.5969 19.9219C38.0594 20.0906 37.6031 20.3187 37.2281 20.6062C36.8531 20.8937 36.5656 21.2281 36.3656 21.6094C36.1656 21.9906 36.0656 22.3906 36.0656 22.8094C36.0656 23.2406 36.1625 23.6219 36.3563 23.9531C36.5563 24.2844 36.8313 24.575 37.1813 24.825C37.5313 25.0812 37.95 25.3 38.4375 25.4812C38.9313 25.6562 39.475 25.8031 40.0688 25.9219C40.5375 26.0094 40.925 26.0969 41.2313 26.1844C41.5375 26.2719 41.7844 26.3656 41.9719 26.4656C42.1531 26.5719 42.2781 26.6844 42.3469 26.8031C42.4219 26.9219 42.4594 27.0594 42.4594 27.2156ZM47.0906 24.8344V25.0312C47.0906 25.775 47.1969 26.4625 47.4094 27.0937C47.6219 27.7187 47.9344 28.2625 48.3469 28.725C48.7531 29.1875 49.2531 29.55 49.8469 29.8125C50.4469 30.0688 51.1281 30.1969 51.8906 30.1969C52.6469 30.1969 53.3219 30.0688 53.9156 29.8125C54.5094 29.55 55.0094 29.1875 55.4156 28.725C55.8219 28.2625 56.1313 27.7187 56.3438 27.0937C56.5563 26.4625 56.6625 25.775 56.6625 25.0312V24.8344C56.6625 24.0969 56.5563 23.4156 56.3438 22.7906C56.1313 22.1594 55.8219 21.6125 55.4156 21.15C55.0031 20.6875 54.5 20.325 53.9063 20.0625C53.3125 19.8 52.6344 19.6687 51.8719 19.6687C51.1094 19.6687 50.4313 19.8 49.8375 20.0625C49.25 20.325 48.7531 20.6875 48.3469 21.15C47.9344 21.6125 47.6219 22.1594 47.4094 22.7906C47.1969 23.4156 47.0906 24.0969 47.0906 24.8344ZM49.6969 25.0312V24.8344C49.6969 24.4219 49.7375 24.0312 49.8188 23.6625C49.9 23.2937 50.0281 22.9687 50.2031 22.6875C50.3781 22.4062 50.6031 22.1844 50.8781 22.0219C51.1531 21.8594 51.4844 21.7781 51.8719 21.7781C52.2656 21.7781 52.6 21.8594 52.875 22.0219C53.15 22.1844 53.375 22.4062 53.55 22.6875C53.7188 22.9687 53.8438 23.2937 53.925 23.6625C54.0063 24.0312 54.0469 24.4219 54.0469 24.8344V25.0312C54.0469 25.4562 54.0063 25.8562 53.925 26.2312C53.8438 26.6 53.7188 26.9219 53.55 27.1969C53.375 27.4781 53.15 27.7 52.875 27.8625C52.6 28.025 52.2719 28.1062 51.8906 28.1062C51.4969 28.1062 51.1594 28.025 50.8781 27.8625C50.6031 27.7 50.3781 27.4781 50.2031 27.1969C50.0281 26.9219 49.9 26.6 49.8188 26.2312C49.7375 25.8562 49.6969 25.4562 49.6969 25.0312ZM58.9781 30H61.5938V22.7906C61.6813 22.6531 61.7781 22.5281 61.8844 22.4156C61.9906 22.3031 62.1094 22.2062 62.2406 22.125C62.4031 22.0125 62.5875 21.9281 62.7938 21.8719C63.0063 21.8156 63.2375 21.7875 63.4875 21.7875C63.7875 21.7875 64.0563 21.8187 64.2938 21.8812C64.5313 21.9375 64.7344 22.0406 64.9031 22.1906C65.0719 22.3406 65.2 22.5469 65.2875 22.8094C65.3813 23.0656 65.4281 23.3937 65.4281 23.7937V30H68.0344V23.7562C68.0344 23.0187 67.9469 22.3937 67.7719 21.8812C67.6031 21.3625 67.3656 20.9375 67.0594 20.6062C66.7469 20.2812 66.3781 20.0437 65.9531 19.8937C65.5281 19.7437 65.0594 19.6687 64.5469 19.6687C64.1469 19.6687 63.7688 19.725 63.4125 19.8375C63.0563 19.95 62.7281 20.1125 62.4281 20.325C62.2531 20.45 62.0875 20.5906 61.9313 20.7469C61.775 20.9031 61.6313 21.075 61.5 21.2625L61.3406 19.8562H58.9781V30ZM75.1219 27.7359C75.1219 28.4578 75.3656 29.0625 75.8531 29.55C76.3406 30.0375 77.0016 30.2813 77.8359 30.2813C78.6609 30.2813 79.3172 30.0422 79.8047 29.5641C80.3016 29.0766 80.55 28.4672 80.55 27.7359C80.55 27.0047 80.3063 26.3906 79.8188 25.8937C79.3406 25.3969 78.6797 25.1484 77.8359 25.1484C76.9828 25.1484 76.3172 25.4016 75.8391 25.9078C75.3609 26.4047 75.1219 27.0141 75.1219 27.7359ZM96.9469 25.0312V24.8344C96.9469 24.2219 96.8906 23.6469 96.7781 23.1094C96.6719 22.5719 96.5063 22.0875 96.2813 21.6562C96.1375 21.3875 95.9719 21.1406 95.7844 20.9156C95.5969 20.6844 95.3875 20.4875 95.1563 20.325C94.8688 20.1125 94.5406 19.95 94.1719 19.8375C93.8094 19.725 93.4094 19.6687 92.9719 19.6687C92.6531 19.6687 92.3563 19.7031 92.0813 19.7719C91.8125 19.8344 91.5625 19.9312 91.3313 20.0625C91.1688 20.15 91.0156 20.2562 90.8719 20.3812C90.7281 20.5 90.5938 20.6312 90.4688 20.775V15.6H87.8625V30H90.2063L90.3281 28.9219C90.4344 29.0594 90.5469 29.1875 90.6656 29.3062C90.7844 29.4187 90.9125 29.5219 91.05 29.6156C91.3063 29.8031 91.5938 29.9437 91.9125 30.0375C92.2375 30.1375 92.5969 30.1875 92.9906 30.1875C93.4219 30.1875 93.8156 30.1313 94.1719 30.0188C94.5344 29.9125 94.8594 29.7562 95.1469 29.55C95.4656 29.3312 95.7406 29.0562 95.9719 28.725C96.2094 28.3937 96.4 28.025 96.5438 27.6187C96.675 27.25 96.775 26.85 96.8438 26.4187C96.9125 25.9812 96.9469 25.5187 96.9469 25.0312ZM94.3406 24.8344V25.0312C94.3406 25.2937 94.3281 25.5469 94.3031 25.7906C94.2844 26.0344 94.25 26.2594 94.2 26.4656C94.1375 26.7469 94.0438 27 93.9188 27.225C93.8 27.4437 93.6438 27.6219 93.45 27.7594C93.3125 27.8594 93.15 27.9375 92.9625 27.9937C92.775 28.05 92.5656 28.0781 92.3344 28.0781C92.0656 28.0781 91.825 28.0469 91.6125 27.9844C91.4063 27.9219 91.225 27.8312 91.0688 27.7125C90.9375 27.6187 90.8219 27.5094 90.7219 27.3844C90.6281 27.2531 90.5438 27.1094 90.4688 26.9531V22.9125C90.525 22.7937 90.5875 22.6844 90.6563 22.5844C90.725 22.4781 90.8 22.3844 90.8813 22.3031C91.05 22.1344 91.2531 22.0062 91.4906 21.9187C91.7281 21.8312 92.0031 21.7875 92.3156 21.7875C92.5469 21.7875 92.7531 21.8156 92.9344 21.8719C93.1156 21.9219 93.2781 22 93.4219 22.1062C93.6406 22.275 93.8031 22.4625 93.9094 22.6687C94.0219 22.8687 94.1125 23.0969 94.1813 23.3531C94.2375 23.5719 94.2781 23.8062 94.3031 24.0562C94.3281 24.3062 94.3406 24.5656 94.3406 24.8344ZM98.9813 24.8344V25.0312C98.9813 25.775 99.0875 26.4625 99.3 27.0937C99.5125 27.7187 99.825 28.2625 100.238 28.725C100.644 29.1875 101.144 29.55 101.738 29.8125C102.338 30.0688 103.019 30.1969 103.781 30.1969C104.538 30.1969 105.213 30.0688 105.806 29.8125C106.4 29.55 106.9 29.1875 107.306 28.725C107.713 28.2625 108.022 27.7187 108.234 27.0937C108.447 26.4625 108.553 25.775 108.553 25.0312V24.8344C108.553 24.0969 108.447 23.4156 108.234 22.7906C108.022 22.1594 107.713 21.6125 107.306 21.15C106.894 20.6875 106.391 20.325 105.797 20.0625C105.203 19.8 104.525 19.6687 103.763 19.6687C103 19.6687 102.322 19.8 101.728 20.0625C101.141 20.325 100.644 20.6875 100.238 21.15C99.825 21.6125 99.5125 22.1594 99.3 22.7906C99.0875 23.4156 98.9813 24.0969 98.9813 24.8344ZM101.588 25.0312V24.8344C101.588 24.4219 101.628 24.0312 101.709 23.6625C101.791 23.2937 101.919 22.9687 102.094 22.6875C102.269 22.4062 102.494 22.1844 102.769 22.0219C103.044 21.8594 103.375 21.7781 103.763 21.7781C104.156 21.7781 104.491 21.8594 104.766 22.0219C105.041 22.1844 105.266 22.4062 105.441 22.6875C105.609 22.9687 105.734 23.2937 105.816 23.6625C105.897 24.0312 105.938 24.4219 105.938 24.8344V25.0312C105.938 25.4562 105.897 25.8562 105.816 26.2312C105.734 26.6 105.609 26.9219 105.441 27.1969C105.266 27.4781 105.041 27.7 104.766 27.8625C104.491 28.025 104.163 28.1062 103.781 28.1062C103.388 28.1062 103.05 28.025 102.769 27.8625C102.494 27.7 102.269 27.4781 102.094 27.1969C101.919 26.9219 101.791 26.6 101.709 26.2312C101.628 25.8562 101.588 25.4562 101.588 25.0312ZM115.65 17.3719H113.044V19.8562H110.728V21.7781H113.044V26.3906C113.044 27.0594 113.131 27.6344 113.306 28.1156C113.481 28.5906 113.731 28.9812 114.056 29.2875C114.375 29.6 114.759 29.8312 115.209 29.9812C115.666 30.125 116.172 30.1969 116.728 30.1969C117.016 30.1969 117.306 30.1813 117.6 30.15C117.9 30.125 118.188 30.0875 118.463 30.0375C118.738 29.9875 118.997 29.925 119.241 29.85C119.484 29.7687 119.697 29.675 119.878 29.5687L119.625 27.7781C119.506 27.8094 119.363 27.8406 119.194 27.8719C119.031 27.9031 118.856 27.9312 118.669 27.9562C118.475 27.9875 118.272 28.0125 118.059 28.0312C117.853 28.05 117.65 28.0594 117.45 28.0594C117.175 28.0594 116.925 28.0281 116.7 27.9656C116.481 27.9031 116.294 27.7969 116.138 27.6469C115.981 27.5031 115.859 27.3094 115.772 27.0656C115.691 26.8156 115.65 26.5062 115.65 26.1375V21.7781H119.438V19.8562H115.65V17.3719Z" fill="#4B6584"/>
<path d="M130.211 31.2715V30H124.867V31.2715H130.211Z" fill="black"/>
</svg>
