<svg width="118" height="16" viewBox="0 0 118 16" fill="none" xmlns="http://www.w3.org/2000/svg">
<path d="M6.60625 4.66875C5.925 4.66875 5.29688 4.83437 4.72188 5.16562C4.14688 5.49062 3.65313 5.94062 3.24063 6.51562L3.22188 6.29062L3.11875 4.85625H0.690625V15H3.29688V8.90625C3.41563 8.61875 3.56563 8.36875 3.74688 8.15625C3.92813 7.94375 4.14688 7.76875 4.40313 7.63125C4.61563 7.5125 4.85625 7.425 5.125 7.36875C5.4 7.30625 5.70625 7.275 6.04375 7.275C6.36875 7.275 6.70938 7.29687 7.06563 7.34062C7.42813 7.37812 7.78125 7.4375 8.125 7.51875L8.50938 4.92187C8.30313 4.85937 8.03125 4.80312 7.69375 4.75312C7.3625 4.69687 7 4.66875 6.60625 4.66875ZM10.4969 9.83437V10.0312C10.4969 10.775 10.6031 11.4625 10.8156 12.0937C11.0281 12.7187 11.3406 13.2625 11.7531 13.725C12.1594 14.1875 12.6594 14.55 13.2531 14.8125C13.8531 15.0688 14.5344 15.1969 15.2969 15.1969C16.0531 15.1969 16.7281 15.0688 17.3219 14.8125C17.9156 14.55 18.4156 14.1875 18.8219 13.725C19.2281 13.2625 19.5375 12.7187 19.75 12.0937C19.9625 11.4625 20.0688 10.775 20.0688 10.0312V9.83437C20.0688 9.09687 19.9625 8.41562 19.75 7.79062C19.5375 7.15937 19.2281 6.6125 18.8219 6.15C18.4094 5.6875 17.9063 5.325 17.3125 5.0625C16.7188 4.8 16.0406 4.66875 15.2781 4.66875C14.5156 4.66875 13.8375 4.8 13.2438 5.0625C12.6563 5.325 12.1594 5.6875 11.7531 6.15C11.3406 6.6125 11.0281 7.15937 10.8156 7.79062C10.6031 8.41562 10.4969 9.09687 10.4969 9.83437ZM13.1031 10.0312V9.83437C13.1031 9.42187 13.1438 9.03125 13.225 8.6625C13.3063 8.29375 13.4344 7.96875 13.6094 7.6875C13.7844 7.40625 14.0094 7.18437 14.2844 7.02187C14.5594 6.85937 14.8906 6.77812 15.2781 6.77812C15.6719 6.77812 16.0063 6.85937 16.2813 7.02187C16.5563 7.18437 16.7813 7.40625 16.9563 7.6875C17.125 7.96875 17.25 8.29375 17.3313 8.6625C17.4125 9.03125 17.4531 9.42187 17.4531 9.83437V10.0312C17.4531 10.4562 17.4125 10.8562 17.3313 11.2312C17.25 11.6 17.125 11.9219 16.9563 12.1969C16.7813 12.4781 16.5563 12.7 16.2813 12.8625C16.0063 13.025 15.6781 13.1062 15.2969 13.1062C14.9031 13.1062 14.5656 13.025 14.2844 12.8625C14.0094 12.7 13.7844 12.4781 13.6094 12.1969C13.4344 11.9219 13.3063 11.6 13.225 11.2312C13.1438 10.8562 13.1031 10.4562 13.1031 10.0312ZM31.525 10.0312V9.83437C31.525 9.22187 31.4688 8.64687 31.3563 8.10937C31.25 7.57187 31.0844 7.0875 30.8594 6.65625C30.7156 6.3875 30.55 6.14062 30.3625 5.91562C30.175 5.68437 29.9656 5.4875 29.7344 5.325C29.4469 5.1125 29.1188 4.95 28.75 4.8375C28.3875 4.725 27.9875 4.66875 27.55 4.66875C27.2313 4.66875 26.9344 4.70312 26.6594 4.77187C26.3906 4.83437 26.1406 4.93125 25.9094 5.0625C25.7469 5.15 25.5938 5.25625 25.45 5.38125C25.3063 5.5 25.1719 5.63125 25.0469 5.775V0.599999H22.4406V15H24.7844L24.9063 13.9219C25.0125 14.0594 25.125 14.1875 25.2438 14.3062C25.3625 14.4187 25.4906 14.5219 25.6281 14.6156C25.8844 14.8031 26.1719 14.9437 26.4906 15.0375C26.8156 15.1375 27.175 15.1875 27.5688 15.1875C28 15.1875 28.3938 15.1313 28.75 15.0188C29.1125 14.9125 29.4375 14.7562 29.725 14.55C30.0438 14.3312 30.3188 14.0562 30.55 13.725C30.7875 13.3937 30.9781 13.025 31.1219 12.6187C31.2531 12.25 31.3531 11.85 31.4219 11.4187C31.4906 10.9812 31.525 10.5187 31.525 10.0312ZM28.9188 9.83437V10.0312C28.9188 10.2937 28.9063 10.5469 28.8813 10.7906C28.8625 11.0344 28.8281 11.2594 28.7781 11.4656C28.7156 11.7469 28.6219 12 28.4969 12.225C28.3781 12.4437 28.2219 12.6219 28.0281 12.7594C27.8906 12.8594 27.7281 12.9375 27.5406 12.9937C27.3531 13.05 27.1438 13.0781 26.9125 13.0781C26.6438 13.0781 26.4031 13.0469 26.1906 12.9844C25.9844 12.9219 25.8031 12.8312 25.6469 12.7125C25.5156 12.6187 25.4 12.5094 25.3 12.3844C25.2063 12.2531 25.1219 12.1094 25.0469 11.9531V7.9125C25.1031 7.79375 25.1656 7.68437 25.2344 7.58437C25.3031 7.47812 25.3781 7.38437 25.4594 7.30312C25.6281 7.13437 25.8313 7.00625 26.0688 6.91875C26.3063 6.83125 26.5813 6.7875 26.8938 6.7875C27.125 6.7875 27.3313 6.81562 27.5125 6.87187C27.6938 6.92187 27.8563 7 28 7.10625C28.2188 7.275 28.3813 7.4625 28.4875 7.66875C28.6 7.86875 28.6906 8.09687 28.7594 8.35312C28.8156 8.57187 28.8563 8.80625 28.8813 9.05625C28.9063 9.30625 28.9188 9.56562 28.9188 9.83437ZM40.4594 12.2156C40.4594 12.3719 40.4188 12.5156 40.3375 12.6469C40.2625 12.7781 40.1469 12.8937 39.9906 12.9937C39.8281 13.0937 39.6188 13.175 39.3625 13.2375C39.1125 13.2937 38.8188 13.3219 38.4813 13.3219C38.2 13.3219 37.925 13.2937 37.6563 13.2375C37.3938 13.1812 37.1594 13.0906 36.9531 12.9656C36.7469 12.8469 36.5781 12.6906 36.4469 12.4969C36.3156 12.2969 36.2406 12.0594 36.2219 11.7844H33.7375C33.7375 12.1969 33.8375 12.6094 34.0375 13.0219C34.2438 13.4281 34.5438 13.7906 34.9375 14.1094C35.3313 14.4344 35.8188 14.6969 36.4 14.8969C36.9875 15.0969 37.6625 15.1969 38.425 15.1969C39.1188 15.1969 39.7469 15.1219 40.3094 14.9719C40.8719 14.8156 41.3531 14.6 41.7531 14.325C42.1469 14.05 42.45 13.725 42.6625 13.35C42.8813 12.9687 42.9906 12.5531 42.9906 12.1031C42.9906 11.6156 42.8813 11.1969 42.6625 10.8469C42.45 10.4906 42.1531 10.1875 41.7719 9.9375C41.3906 9.69375 40.9375 9.49375 40.4125 9.3375C39.8875 9.18125 39.3188 9.05312 38.7063 8.95312C38.2813 8.89062 37.9313 8.81875 37.6563 8.7375C37.3813 8.65 37.1656 8.55312 37.0094 8.44687C36.8469 8.34687 36.7344 8.23437 36.6719 8.10937C36.6094 7.97812 36.5781 7.8375 36.5781 7.6875C36.5781 7.5375 36.6125 7.39687 36.6813 7.26562C36.7563 7.12812 36.8625 7.00937 37 6.90937C37.15 6.79687 37.3438 6.70937 37.5813 6.64687C37.8188 6.58437 38.0969 6.55312 38.4156 6.55312C38.7906 6.55312 39.1094 6.6 39.3719 6.69375C39.6406 6.7875 39.8531 6.9125 40.0094 7.06875C40.1219 7.1875 40.2063 7.32187 40.2625 7.47187C40.3188 7.61562 40.3469 7.77187 40.3469 7.94062H42.9531C42.9531 7.47187 42.85 7.0375 42.6438 6.6375C42.4375 6.2375 42.1406 5.89062 41.7531 5.59687C41.3594 5.30937 40.8813 5.08437 40.3188 4.92187C39.7563 4.75312 39.1219 4.66875 38.4156 4.66875C37.7406 4.66875 37.1344 4.75312 36.5969 4.92187C36.0594 5.09062 35.6031 5.31875 35.2281 5.60625C34.8531 5.89375 34.5656 6.22812 34.3656 6.60937C34.1656 6.99062 34.0656 7.39062 34.0656 7.80937C34.0656 8.24062 34.1625 8.62187 34.3563 8.95312C34.5563 9.28437 34.8313 9.575 35.1813 9.825C35.5313 10.0812 35.95 10.3 36.4375 10.4812C36.9313 10.6562 37.475 10.8031 38.0688 10.9219C38.5375 11.0094 38.925 11.0969 39.2313 11.1844C39.5375 11.2719 39.7844 11.3656 39.9719 11.4656C40.1531 11.5719 40.2781 11.6844 40.3469 11.8031C40.4219 11.9219 40.4594 12.0594 40.4594 12.2156ZM45.0906 9.83437V10.0312C45.0906 10.775 45.1969 11.4625 45.4094 12.0937C45.6219 12.7187 45.9344 13.2625 46.3469 13.725C46.7531 14.1875 47.2531 14.55 47.8469 14.8125C48.4469 15.0688 49.1281 15.1969 49.8906 15.1969C50.6469 15.1969 51.3219 15.0688 51.9156 14.8125C52.5094 14.55 53.0094 14.1875 53.4156 13.725C53.8219 13.2625 54.1313 12.7187 54.3438 12.0937C54.5563 11.4625 54.6625 10.775 54.6625 10.0312V9.83437C54.6625 9.09687 54.5563 8.41562 54.3438 7.79062C54.1313 7.15937 53.8219 6.6125 53.4156 6.15C53.0031 5.6875 52.5 5.325 51.9063 5.0625C51.3125 4.8 50.6344 4.66875 49.8719 4.66875C49.1094 4.66875 48.4313 4.8 47.8375 5.0625C47.25 5.325 46.7531 5.6875 46.3469 6.15C45.9344 6.6125 45.6219 7.15937 45.4094 7.79062C45.1969 8.41562 45.0906 9.09687 45.0906 9.83437ZM47.6969 10.0312V9.83437C47.6969 9.42187 47.7375 9.03125 47.8188 8.6625C47.9 8.29375 48.0281 7.96875 48.2031 7.6875C48.3781 7.40625 48.6031 7.18437 48.8781 7.02187C49.1531 6.85937 49.4844 6.77812 49.8719 6.77812C50.2656 6.77812 50.6 6.85937 50.875 7.02187C51.15 7.18437 51.375 7.40625 51.55 7.6875C51.7188 7.96875 51.8438 8.29375 51.925 8.6625C52.0063 9.03125 52.0469 9.42187 52.0469 9.83437V10.0312C52.0469 10.4562 52.0063 10.8562 51.925 11.2312C51.8438 11.6 51.7188 11.9219 51.55 12.1969C51.375 12.4781 51.15 12.7 50.875 12.8625C50.6 13.025 50.2719 13.1062 49.8906 13.1062C49.4969 13.1062 49.1594 13.025 48.8781 12.8625C48.6031 12.7 48.3781 12.4781 48.2031 12.1969C48.0281 11.9219 47.9 11.6 47.8188 11.2312C47.7375 10.8562 47.6969 10.4562 47.6969 10.0312ZM56.9781 15H59.5938V7.79062C59.6813 7.65312 59.7781 7.52812 59.8844 7.41562C59.9906 7.30312 60.1094 7.20625 60.2406 7.125C60.4031 7.0125 60.5875 6.92812 60.7938 6.87187C61.0063 6.81562 61.2375 6.7875 61.4875 6.7875C61.7875 6.7875 62.0563 6.81875 62.2938 6.88125C62.5313 6.9375 62.7344 7.04062 62.9031 7.19062C63.0719 7.34062 63.2 7.54687 63.2875 7.80937C63.3813 8.06562 63.4281 8.39375 63.4281 8.79375V15H66.0344V8.75625C66.0344 8.01875 65.9469 7.39375 65.7719 6.88125C65.6031 6.3625 65.3656 5.9375 65.0594 5.60625C64.7469 5.28125 64.3781 5.04375 63.9531 4.89375C63.5281 4.74375 63.0594 4.66875 62.5469 4.66875C62.1469 4.66875 61.7688 4.725 61.4125 4.8375C61.0563 4.95 60.7281 5.1125 60.4281 5.325C60.2531 5.45 60.0875 5.59062 59.9313 5.74687C59.775 5.90312 59.6313 6.075 59.5 6.2625L59.3406 4.85625H56.9781V15ZM73.1219 12.7359C73.1219 13.4578 73.3656 14.0625 73.8531 14.55C74.3406 15.0375 75.0016 15.2813 75.8359 15.2813C76.6609 15.2813 77.3172 15.0422 77.8047 14.5641C78.3016 14.0766 78.55 13.4672 78.55 12.7359C78.55 12.0047 78.3063 11.3906 77.8188 10.8937C77.3406 10.3969 76.6797 10.1484 75.8359 10.1484C74.9828 10.1484 74.3172 10.4016 73.8391 10.9078C73.3609 11.4047 73.1219 12.0141 73.1219 12.7359ZM94.9469 10.0312V9.83437C94.9469 9.22187 94.8906 8.64687 94.7781 8.10937C94.6719 7.57187 94.5063 7.0875 94.2813 6.65625C94.1375 6.3875 93.9719 6.14062 93.7844 5.91562C93.5969 5.68437 93.3875 5.4875 93.1563 5.325C92.8688 5.1125 92.5406 4.95 92.1719 4.8375C91.8094 4.725 91.4094 4.66875 90.9719 4.66875C90.6531 4.66875 90.3563 4.70312 90.0813 4.77187C89.8125 4.83437 89.5625 4.93125 89.3313 5.0625C89.1688 5.15 89.0156 5.25625 88.8719 5.38125C88.7281 5.5 88.5938 5.63125 88.4688 5.775V0.599999H85.8625V15H88.2063L88.3281 13.9219C88.4344 14.0594 88.5469 14.1875 88.6656 14.3062C88.7844 14.4187 88.9125 14.5219 89.05 14.6156C89.3063 14.8031 89.5938 14.9437 89.9125 15.0375C90.2375 15.1375 90.5969 15.1875 90.9906 15.1875C91.4219 15.1875 91.8156 15.1313 92.1719 15.0188C92.5344 14.9125 92.8594 14.7562 93.1469 14.55C93.4656 14.3312 93.7406 14.0562 93.9719 13.725C94.2094 13.3937 94.4 13.025 94.5438 12.6187C94.675 12.25 94.775 11.85 94.8438 11.4187C94.9125 10.9812 94.9469 10.5187 94.9469 10.0312ZM92.3406 9.83437V10.0312C92.3406 10.2937 92.3281 10.5469 92.3031 10.7906C92.2844 11.0344 92.25 11.2594 92.2 11.4656C92.1375 11.7469 92.0438 12 91.9188 12.225C91.8 12.4437 91.6438 12.6219 91.45 12.7594C91.3125 12.8594 91.15 12.9375 90.9625 12.9937C90.775 13.05 90.5656 13.0781 90.3344 13.0781C90.0656 13.0781 89.825 13.0469 89.6125 12.9844C89.4063 12.9219 89.225 12.8312 89.0688 12.7125C88.9375 12.6187 88.8219 12.5094 88.7219 12.3844C88.6281 12.2531 88.5438 12.1094 88.4688 11.9531V7.9125C88.525 7.79375 88.5875 7.68437 88.6563 7.58437C88.725 7.47812 88.8 7.38437 88.8813 7.30312C89.05 7.13437 89.2531 7.00625 89.4906 6.91875C89.7281 6.83125 90.0031 6.7875 90.3156 6.7875C90.5469 6.7875 90.7531 6.81562 90.9344 6.87187C91.1156 6.92187 91.2781 7 91.4219 7.10625C91.6406 7.275 91.8031 7.4625 91.9094 7.66875C92.0219 7.86875 92.1125 8.09687 92.1813 8.35312C92.2375 8.57187 92.2781 8.80625 92.3031 9.05625C92.3281 9.30625 92.3406 9.56562 92.3406 9.83437ZM96.9813 9.83437V10.0312C96.9813 10.775 97.0875 11.4625 97.3 12.0937C97.5125 12.7187 97.825 13.2625 98.2375 13.725C98.6438 14.1875 99.1438 14.55 99.7375 14.8125C100.338 15.0688 101.019 15.1969 101.781 15.1969C102.538 15.1969 103.213 15.0688 103.806 14.8125C104.4 14.55 104.9 14.1875 105.306 13.725C105.713 13.2625 106.022 12.7187 106.234 12.0937C106.447 11.4625 106.553 10.775 106.553 10.0312V9.83437C106.553 9.09687 106.447 8.41562 106.234 7.79062C106.022 7.15937 105.713 6.6125 105.306 6.15C104.894 5.6875 104.391 5.325 103.797 5.0625C103.203 4.8 102.525 4.66875 101.763 4.66875C101 4.66875 100.322 4.8 99.7281 5.0625C99.1406 5.325 98.6438 5.6875 98.2375 6.15C97.825 6.6125 97.5125 7.15937 97.3 7.79062C97.0875 8.41562 96.9813 9.09687 96.9813 9.83437ZM99.5875 10.0312V9.83437C99.5875 9.42187 99.6281 9.03125 99.7094 8.6625C99.7906 8.29375 99.9188 7.96875 100.094 7.6875C100.269 7.40625 100.494 7.18437 100.769 7.02187C101.044 6.85937 101.375 6.77812 101.763 6.77812C102.156 6.77812 102.491 6.85937 102.766 7.02187C103.041 7.18437 103.266 7.40625 103.441 7.6875C103.609 7.96875 103.734 8.29375 103.816 8.6625C103.897 9.03125 103.938 9.42187 103.938 9.83437V10.0312C103.938 10.4562 103.897 10.8562 103.816 11.2312C103.734 11.6 103.609 11.9219 103.441 12.1969C103.266 12.4781 103.041 12.7 102.766 12.8625C102.491 13.025 102.163 13.1062 101.781 13.1062C101.388 13.1062 101.05 13.025 100.769 12.8625C100.494 12.7 100.269 12.4781 100.094 12.1969C99.9188 11.9219 99.7906 11.6 99.7094 11.2312C99.6281 10.8562 99.5875 10.4562 99.5875 10.0312ZM113.65 2.37187H111.044V4.85625H108.728V6.77812H111.044V11.3906C111.044 12.0594 111.131 12.6344 111.306 13.1156C111.481 13.5906 111.731 13.9812 112.056 14.2875C112.375 14.6 112.759 14.8312 113.209 14.9812C113.666 15.125 114.172 15.1969 114.728 15.1969C115.016 15.1969 115.306 15.1813 115.6 15.15C115.9 15.125 116.188 15.0875 116.463 15.0375C116.738 14.9875 116.997 14.925 117.241 14.85C117.484 14.7687 117.697 14.675 117.878 14.5687L117.625 12.7781C117.506 12.8094 117.363 12.8406 117.194 12.8719C117.031 12.9031 116.856 12.9312 116.669 12.9562C116.475 12.9875 116.272 13.0125 116.059 13.0312C115.853 13.05 115.65 13.0594 115.45 13.0594C115.175 13.0594 114.925 13.0281 114.7 12.9656C114.481 12.9031 114.294 12.7969 114.138 12.6469C113.981 12.5031 113.859 12.3094 113.772 12.0656C113.691 11.8156 113.65 11.5062 113.65 11.1375V6.77812H117.438V4.85625H113.65V2.37187Z" fill="white"/>
</svg>
