<svg width="15" height="15" viewBox="0 0 15 15" fill="none" xmlns="http://www.w3.org/2000/svg">
<g clip-path="url(#clip0)">
<path d="M13.6196 1.88283H1.38038C0.619248 1.88283 0 2.50205 0 3.26415C0 4.02528 0.619248 4.64453 1.38038 4.64453H13.6196C14.3808 4.64453 15 4.02528 15 3.26415C15 2.50205 14.3808 1.88283 13.6196 1.88283Z" fill="#4B6584"/>
<path d="M13.6196 6.11915H1.38038C0.619248 6.11915 0 6.73837 0 7.50047C0 8.2616 0.619248 8.88085 1.38038 8.88085H13.6196C14.3808 8.88085 15 8.2616 15 7.50047C15 6.73837 14.3808 6.11915 13.6196 6.11915Z" fill="#4B6584"/>
<path d="M13.6196 10.3555H1.38038C0.619248 10.3555 0 10.9747 0 11.7368C0 12.4979 0.619248 13.1172 1.38038 13.1172H13.6196C14.3808 13.1172 15 12.4979 15 11.7368C15 10.9747 14.3808 10.3555 13.6196 10.3555Z" fill="#4B6584"/>
</g>
<defs>
<clipPath id="clip0">
<rect width="15" height="15" fill="white"/>
</clipPath>
</defs>
</svg>
