<svg width="28" height="28" viewBox="0 0 28 28" fill="none" xmlns="http://www.w3.org/2000/svg">
<g clip-path="url(#clip0)">
<path d="M7.93168 5.60464C7.93168 6.12 7.51392 6.53776 6.99856 6.53776C6.48319 6.53776 6.06543 6.12 6.06543 5.60464C6.06543 5.08927 6.48319 4.67151 6.99856 4.67151C7.51392 4.67151 7.93168 5.08927 7.93168 5.60464Z" fill="#E3E7F2"/>
<path d="M27.5276 5.60464C27.5276 6.12 27.1098 6.53776 26.5944 6.53776C26.0791 6.53776 25.6613 6.12 25.6613 5.60464C25.6613 5.08927 26.0791 4.67151 26.5944 4.67151C27.1098 4.67151 27.5276 5.08927 27.5276 5.60464Z" fill="#E3E7F2"/>
<path d="M20.9957 18.37L22.3908 19.2799L23.7997 17.6281L20.9957 14.74L20.7298 14.4694L20.9957 18.37Z" fill="#A4C2F7"/>
<path d="M20.9957 12.3606V22.8678C20.9955 23.151 20.9092 23.4276 20.7484 23.6608L16.6145 24.2674H12.7793L8.22088 24.2535C7.52162 24.167 6.99707 23.5722 6.99857 22.8678V11.698C7.00241 10.1381 8.26595 8.87453 9.82593 8.87068L20.9957 12.3606Z" fill="#A4C2F7"/>
<path d="M19.8293 12.3606V22.8678C19.8289 23.151 19.7428 23.4276 19.582 23.6608L15.4482 24.2674H12.7793L8.22088 24.2535C7.52162 24.167 6.99707 23.5722 6.99857 22.8678V11.698C6.99729 10.4437 7.82427 9.33928 9.02821 8.9873L19.8293 12.3606Z" fill="#E3E7F2"/>
<path d="M23.7951 2.5765V8.40401C23.7951 10.723 21.9151 12.6032 19.5959 12.6032H13.9971C11.6781 12.6032 9.79794 10.723 9.79794 8.40401V2.5765C9.79816 1.41463 10.7403 0.472534 11.9021 0.472321H21.6909C22.853 0.472534 23.7948 1.41463 23.7951 2.5765Z" fill="#A4C2F7"/>
<path d="M22.6287 2.5765V8.40401C22.6287 10.723 20.7486 12.6032 18.4295 12.6032H13.9971C11.6781 12.6032 9.79794 10.723 9.79794 8.40401V2.5765C9.79816 1.41463 10.7403 0.472534 11.9021 0.472321H20.5243C21.6864 0.472534 22.6285 1.41463 22.6287 2.5765Z" fill="#E3E7F2"/>
<path d="M15.8634 5.37141C15.864 5.92843 15.6432 6.4628 15.2493 6.85685C14.8553 7.25069 14.3209 7.47175 13.7639 7.47089C13.6069 7.47047 13.4506 7.45338 13.2972 7.41964C12.3395 7.20392 11.6591 6.35302 11.6591 5.37141C11.6591 4.38959 12.3395 3.5389 13.2972 3.32319C13.4506 3.28944 13.6069 3.27214 13.7639 3.27171C14.3209 3.27107 14.8553 3.49191 15.2493 3.88597C15.6432 4.27981 15.864 4.81418 15.8634 5.37141Z" fill="#E3E7F2"/>
<path d="M21.9288 5.37141C21.9294 5.92843 21.7086 6.4628 21.3148 6.85685C20.9207 7.25069 20.3863 7.47175 19.8293 7.47089C19.6723 7.47047 19.516 7.45338 19.3626 7.41964C18.405 7.20392 17.7245 6.35302 17.7245 5.37141C17.7245 4.38959 18.405 3.5389 19.3626 3.32319C19.516 3.28944 19.6723 3.27214 19.8293 3.27171C20.3863 3.27107 20.9207 3.49191 21.3148 3.88597C21.7086 4.27981 21.9294 4.81418 21.9288 5.37141Z" fill="#E3E7F2"/>
<path d="M14.9302 5.37142C14.9302 4.24009 14.1991 3.3232 13.2972 3.3232C12.3953 3.3232 11.6642 4.24009 11.6642 5.37142C11.6642 6.50253 12.3953 7.41964 13.2972 7.41964C14.1991 7.41964 14.9302 6.50253 14.9302 5.37142Z" fill="#F5F5F5"/>
<path d="M20.9957 5.37142C20.9957 4.24009 20.2646 3.3232 19.3626 3.3232C18.4607 3.3232 17.7296 4.24009 17.7296 5.37142C17.7296 6.50253 18.4607 7.41964 19.3626 7.41964C20.2646 7.41964 20.9957 6.50253 20.9957 5.37142Z" fill="#F5F5F5"/>
<path d="M13.064 25.4339V25.6672H7.93167V25.4339C7.92997 24.2413 8.75246 23.2057 9.91454 22.9376C10.1055 22.8906 10.3013 22.8672 10.4978 22.8678C11.9151 22.8678 13.064 24.0166 13.064 25.4339Z" fill="#A4C2F7"/>
<path d="M21.4621 25.4339V25.6672H16.33V25.4339C16.3281 24.2413 17.1508 23.2057 18.3129 22.9376C18.5036 22.8906 18.6995 22.8672 18.896 22.8678C20.3133 22.8678 21.4621 24.0166 21.4621 25.4339Z" fill="#A4C2F7"/>
<path d="M11.8974 25.4339V25.6672H7.93167V25.4339C7.92997 24.2413 8.75246 23.2057 9.91454 22.9376C10.3812 23.0438 10.8084 23.28 11.1463 23.619C11.6274 24.1004 11.8978 24.7533 11.8974 25.4339Z" fill="#E3E7F2"/>
<path d="M20.2958 25.4339V25.6672H16.33V25.4339C16.3281 24.2413 17.1508 23.2057 18.3129 22.9376C18.7796 23.0438 19.2067 23.28 19.5446 23.619C20.0258 24.1004 20.296 24.7533 20.2958 25.4339Z" fill="#E3E7F2"/>
<path d="M20.9957 14.4694V19.6018H13.9971C13.4824 19.6003 13.0655 19.1833 13.064 18.6686V15.4026C13.0655 14.8878 13.4824 14.4709 13.9971 14.4694H20.9957Z" fill="#A4C2F7"/>
<path d="M19.8293 14.4694V19.6018H13.9971C13.4824 19.6003 13.0655 19.1833 13.064 18.6686V15.4026C13.0655 14.8878 13.4824 14.4709 13.9971 14.4694H19.8293Z" fill="#E3E7F2"/>
<path d="M4.78225 17.1009C5.03342 17.0843 5.26665 16.9643 5.42619 16.7697L6.23331 15.7992C6.4298 15.5356 6.69421 15.3308 6.99856 15.2067C7.09253 15.1715 7.19206 15.1542 7.29244 15.1552C7.6519 15.1898 8.0043 15.2778 8.33749 15.4167C8.71702 15.5589 9.14503 15.4402 9.39662 15.1226L9.4387 15.0713C9.62046 14.8421 9.68432 14.5408 9.61106 14.2576C9.53759 13.9744 9.33575 13.7418 9.06536 13.6296C8.50942 13.4101 7.91823 13.293 7.32042 13.2843C7.21278 13.2841 7.10535 13.2903 6.99856 13.3031C6.11819 13.4235 5.3241 13.8947 4.79635 14.6093L3.99372 15.5798C3.80192 15.809 3.73251 16.1163 3.80726 16.4057L4.78225 17.1009Z" fill="#E3E7F2"/>
<path d="M5.02489 18.5052C4.55822 19.2179 3.64431 19.4885 2.86475 19.1445C2.7727 19.1097 2.68492 19.0644 2.60354 19.0093C1.79664 18.4768 1.57132 17.3927 2.0995 16.583C2.28552 16.2987 2.55186 16.0762 2.86475 15.9438C3.57383 15.6326 4.40294 15.8252 4.90208 16.4171C5.40143 17.0091 5.4514 17.8589 5.02489 18.5052Z" fill="#A4C2F7"/>
<path d="M25.3347 19.7976C24.9272 20.6389 23.9281 21.0075 23.0719 20.6329C23.0672 20.6282 23.0672 20.6282 23.0672 20.6329C23.0439 20.6235 23.0206 20.6096 22.9973 20.6002C22.3854 20.2997 22.0033 19.672 22.0172 18.9907C22.0313 18.3094 22.439 17.6979 23.0625 17.4228H23.0672C23.7397 17.1294 24.5242 17.2872 25.0308 17.8179C25.5376 18.3487 25.6589 19.1393 25.3347 19.7976Z" fill="#A4C2F7"/>
<path d="M3.6253 18.5052C3.44098 18.7893 3.17615 19.0118 2.86475 19.1445C2.7727 19.1097 2.68492 19.0644 2.60354 19.0093C1.79664 18.4768 1.57132 17.3927 2.0995 16.583C2.28552 16.2988 2.55186 16.0762 2.86475 15.9438C2.95595 15.9822 3.04351 16.029 3.12596 16.0839C3.5136 16.3385 3.78399 16.7368 3.87775 17.1911C3.9713 17.6454 3.88053 18.118 3.6253 18.5052Z" fill="#E3E7F2"/>
<path d="M23.9349 19.7976C23.7553 20.1694 23.4495 20.4655 23.0719 20.6329C23.0672 20.6282 23.0672 20.6282 23.0672 20.6329C23.0439 20.6235 23.0206 20.6096 22.9973 20.6002C22.3854 20.2997 22.0033 19.672 22.0172 18.9907C22.0313 18.3094 22.439 17.6979 23.0625 17.4228H23.0672C23.0904 17.4322 23.1139 17.4461 23.1372 17.4555C24.0043 17.882 24.3614 18.9307 23.9349 19.7976Z" fill="#E3E7F2"/>
<path d="M13.5304 26.3671C13.5268 26.8807 13.1112 27.2964 12.5973 27.3002H8.39812C7.8834 27.2987 7.4667 26.8818 7.465 26.3671C7.46884 25.8532 7.88447 25.4376 8.39812 25.434H12.5973C13.112 25.4355 13.5289 25.8524 13.5304 26.3671Z" fill="#A4C2F7"/>
<path d="M21.9288 26.3671C21.925 26.8807 21.5093 27.2964 20.9957 27.3002H16.7965C16.2818 27.2987 15.8649 26.8818 15.8634 26.3671C15.8672 25.8532 16.2828 25.4376 16.7965 25.434H20.9957C21.5104 25.4355 21.9273 25.8524 21.9288 26.3671Z" fill="#A4C2F7"/>
<path d="M12.3641 26.3671C12.3602 26.8807 11.9446 27.2964 11.4309 27.3002H8.39812C7.8834 27.2987 7.4667 26.8818 7.465 26.3671C7.46884 25.8532 7.88447 25.4376 8.39812 25.434H11.4309C11.9457 25.4355 12.3626 25.8524 12.3641 26.3671Z" fill="#E3E7F2"/>
<path d="M20.7624 26.3671C20.7586 26.8807 20.343 27.2964 19.8293 27.3002H16.7965C16.2818 27.2987 15.8649 26.8818 15.8634 26.3671C15.8672 25.8532 16.2828 25.4376 16.7965 25.434H19.8293C20.344 25.4355 20.7607 25.8524 20.7624 26.3671Z" fill="#E3E7F2"/>
<path d="M14.4636 5.60463C14.4636 5.8622 14.2547 6.07108 13.9971 6.07108C13.7393 6.07108 13.5305 5.8622 13.5305 5.60463C13.5305 5.34684 13.7393 5.13795 13.9971 5.13795C14.2547 5.13795 14.4636 5.34684 14.4636 5.60463Z" fill="#3867D6"/>
<path d="M20.0625 5.60463C20.0625 5.8622 19.8537 6.07108 19.5959 6.07108C19.3383 6.07108 19.1294 5.8622 19.1294 5.60463C19.1294 5.34684 19.3383 5.13795 19.5959 5.13795C19.8537 5.13795 20.0625 5.34684 20.0625 5.60463Z" fill="#3867D6"/>
<path d="M19.5959 17.2688C19.5959 17.5266 19.387 17.7355 19.1294 17.7355C18.8716 17.7355 18.6628 17.5266 18.6628 17.2688C18.6628 17.0112 18.8716 16.8024 19.1294 16.8024C19.387 16.8024 19.5959 17.0112 19.5959 17.2688Z" fill="#3867D6"/>
<path d="M2.60354 19.0093C2.68492 19.0644 2.7727 19.1097 2.86475 19.1445C3.30963 19.341 3.81667 19.341 4.26156 19.1445C4.17057 19.1099 4.08386 19.065 4.00313 19.0106C3.19622 18.4783 2.97111 17.394 3.49929 16.5845C3.68532 16.3002 3.95165 16.0777 4.26455 15.9453C4.57488 15.8105 4.91788 15.7686 5.25171 15.8248C5.28524 15.7368 5.33244 15.6546 5.3916 15.5813L6.19423 14.6108C6.7222 13.8951 7.51714 13.4235 8.39815 13.3031V11.698C8.402 10.1383 9.66553 8.87473 11.2253 8.87067C11.2074 8.71562 11.1982 8.55992 11.1977 8.404V2.5765C11.198 1.41463 12.1398 0.472534 13.3019 0.472321H11.9021C10.7403 0.472534 9.79816 1.41463 9.79795 2.5765V8.404C9.79838 8.55992 9.80756 8.71562 9.8255 8.87067C8.26574 8.87473 7.00242 10.1383 6.99857 11.698V13.3031C6.1182 13.4235 5.32411 13.8947 4.79636 14.6093L3.99373 15.5798C3.93457 15.6531 3.88737 15.7353 3.85383 15.8235C3.52001 15.7674 3.17722 15.809 2.86667 15.9438C2.55314 16.076 2.28616 16.2985 2.0995 16.583C1.57132 17.3927 1.79664 18.4768 2.60354 19.0093Z" fill="white"/>
<path d="M6.99856 6.53777C7.26746 6.53713 7.5229 6.41966 7.69846 6.2159C7.38728 5.86777 7.38728 5.34151 7.69846 4.99338C7.4159 4.66746 6.94687 4.57775 6.56414 4.77617C6.18119 4.97437 5.98406 5.40943 6.08722 5.82804C6.19059 6.24687 6.56734 6.54012 6.99856 6.53777Z" fill="white"/>
<path d="M7.63311 15.7992L6.99857 16.5621V22.8678C6.99707 23.5722 7.52162 24.167 8.22088 24.2535H8.2243C8.03293 24.6177 7.93255 25.0226 7.9317 25.434V25.564C7.86164 25.6035 7.79735 25.6524 7.74033 25.709C7.56306 25.882 7.46374 26.1195 7.46503 26.3671C7.46673 26.8818 7.88343 27.2987 8.39815 27.3002H9.79795C9.28323 27.2987 8.86632 26.8818 8.86482 26.3671C8.86354 26.1195 8.96286 25.882 9.14013 25.709C9.19694 25.6524 9.26144 25.6035 9.33149 25.564V25.434C9.33235 25.0226 9.43273 24.6177 9.62388 24.2535H9.62068C8.92142 24.167 8.39666 23.5722 8.39815 22.8678V15.2067C8.09402 15.3308 7.82939 15.5356 7.63311 15.7992Z" fill="white"/>
<path d="M6.53189 22.8678V14.9733H7.46502V22.8678H6.53189Z" fill="white"/>
<path d="M13.7639 7.93755C15.181 7.93755 16.33 6.7885 16.33 5.3714C16.33 3.95409 15.181 2.80525 13.7639 2.80525C12.3466 2.80525 11.1977 3.95409 11.1977 5.3714C11.1992 6.78786 12.3472 7.93584 13.7639 7.93755ZM13.7639 3.73838C14.6656 3.73838 15.3967 4.46946 15.3967 5.3714C15.3967 6.27313 14.6656 7.00443 13.7639 7.00443C12.8619 7.00443 12.1309 6.27313 12.1309 5.3714C12.1309 4.46946 12.8619 3.73838 13.7639 3.73838Z" fill="#3867D6"/>
<path d="M19.8293 7.93755C21.2464 7.93755 22.3953 6.7885 22.3953 5.3714C22.3953 3.95409 21.2464 2.80525 19.8293 2.80525C18.412 2.80525 17.2632 3.95409 17.2632 5.3714C17.2647 6.78786 18.4127 7.93584 19.8293 7.93755ZM19.8293 3.73838C20.7311 3.73838 21.4621 4.46946 21.4621 5.3714C21.4621 6.27313 20.7311 7.00443 19.8293 7.00443C18.9274 7.00443 18.1963 6.27313 18.1963 5.3714C18.1963 4.46946 18.9274 3.73838 19.8293 3.73838Z" fill="#3867D6"/>
<path d="M15.8634 9.33714H14.4636C14.206 9.33714 13.9971 9.54602 13.9971 9.80381C13.9971 10.0614 14.206 10.2703 14.4636 10.2703H15.8634C16.121 10.2703 16.3301 10.0614 16.3301 9.80381C16.3301 9.54602 16.121 9.33714 15.8634 9.33714Z" fill="#3867D6"/>
<path d="M6.82128 19.5644C6.84776 19.5778 6.87596 19.5872 6.90522 19.5924C6.93597 19.5977 6.96715 19.6007 6.99855 19.6018C7.122 19.5998 7.24032 19.5516 7.32981 19.4663C7.37189 19.4219 7.40521 19.3696 7.42785 19.3126C7.49811 19.1385 7.45988 18.9392 7.32981 18.8038C7.28517 18.7618 7.23285 18.7284 7.17582 18.706C7.11965 18.6821 7.05942 18.6693 6.99855 18.6686C6.80889 18.6676 6.6376 18.7812 6.56499 18.9563C6.49215 19.1312 6.53273 19.3329 6.66729 19.4663L6.73734 19.5225C6.76319 19.54 6.79159 19.5541 6.82128 19.5644Z" fill="#3867D6"/>
<path d="M0.277039 20.2469C0.329366 20.4993 0.576263 20.6616 0.828713 20.6095C1.08095 20.5572 1.24327 20.3103 1.19116 20.0581L1.00129 19.1397L2.08798 18.6775C2.33786 19.0162 2.69988 19.2552 3.10974 19.352L3.11721 20.5301L2.19904 20.721C1.96517 20.7697 1.80584 20.9871 1.82976 21.2246C1.85389 21.4624 2.05338 21.6435 2.29216 21.6443C2.32355 21.6443 2.35495 21.6411 2.38549 21.6345L3.67807 21.3671C3.89613 21.3227 4.05247 21.1302 4.05119 20.9077L4.04137 19.3422C5.0029 19.0933 5.59644 18.1299 5.38606 17.1592C5.53706 17.0763 5.67162 16.9665 5.7831 16.8354L6.53191 15.9362V17.2683C6.53191 17.5261 6.74079 17.735 6.99858 17.735C7.25616 17.735 7.46504 17.5261 7.46504 17.2683V15.411C7.70596 15.4595 7.94218 15.5289 8.17113 15.6186C8.73754 15.8373 9.38042 15.6622 9.75738 15.1861L9.80693 15.1263C10.0833 14.7775 10.1773 14.3179 10.0602 13.8884C9.9496 13.4662 9.64419 13.1221 9.23817 12.9619C8.67219 12.7396 8.07267 12.6148 7.46504 12.5924V11.6975C7.46782 10.547 8.30013 9.56601 9.43509 9.37635C9.89642 11.5279 11.7966 13.0661 13.9971 13.0691H19.5959C19.9094 13.0696 20.2219 13.0384 20.529 12.976V14.0025H13.9971C13.224 14.0025 12.5973 14.6291 12.5973 15.4021V18.6681C12.5973 19.441 13.224 20.0677 13.9971 20.0677H20.529V22.8673V22.8807C19.853 22.4455 19.0312 22.2977 18.2457 22.4702C17.4603 22.6428 16.7762 23.1217 16.3448 23.8004H13.0491C12.5042 22.9446 11.5668 22.4185 10.5525 22.3998C9.53825 22.3812 8.58184 22.872 8.00582 23.7071C7.67755 23.5563 7.46654 23.2287 7.46504 22.8673V21.001C7.46504 20.7432 7.25616 20.5344 6.99858 20.5344C6.74079 20.5344 6.53191 20.7432 6.53191 21.001V22.8673C6.53298 23.586 6.94818 24.24 7.5981 24.5469C7.51011 24.8341 7.46525 25.1329 7.46504 25.4334V25.5639C7.03254 25.9497 6.88368 26.5626 7.09085 27.1038C7.29823 27.645 7.81873 28.0015 8.39817 27.9996H12.5973C13.177 28.0015 13.6975 27.645 13.9047 27.1038C14.112 26.5626 13.9632 25.9497 13.5305 25.5639V25.4334C13.5298 25.1976 13.5012 24.9627 13.4457 24.7335H15.9484C15.8927 24.9627 15.8642 25.1976 15.8634 25.4334V25.5639C15.4309 25.9497 15.2818 26.5626 15.4892 27.1038C15.6966 27.645 16.2171 28.0015 16.7965 27.9996H20.9957C21.5751 28.0015 22.0956 27.645 22.303 27.1038C22.5104 26.5626 22.3613 25.9497 21.9288 25.5639V25.4334C21.9284 24.7707 21.7099 24.1265 21.3069 23.6007C21.4081 23.3694 21.4609 23.1197 21.4622 22.8673V19.2307L21.9852 19.5718C21.9914 19.5914 21.9927 19.6115 21.9993 19.6307C22.3098 20.5743 23.3143 21.1001 24.2669 20.818L25.0548 22.1674C25.1381 22.3113 25.2916 22.4004 25.458 22.4006C25.5095 22.4004 25.5607 22.3921 25.6096 22.3754L26.8576 21.948C27.0169 21.8953 27.1357 21.7612 27.1686 21.5965C27.2014 21.4318 27.1434 21.2622 27.0165 21.1525C26.8896 21.0425 26.7136 21.0094 26.5554 21.0653L25.6688 21.369L25.0736 20.3477C25.3783 20.0576 25.5691 19.6681 25.6114 19.2495L26.7826 19.0946L27.0863 19.981C27.1376 20.142 27.2719 20.2627 27.4377 20.2964C27.6032 20.3302 27.7741 20.2717 27.8845 20.1437C27.9947 20.0156 28.0269 19.8379 27.969 19.6792L27.5417 18.4306C27.4697 18.2204 27.2593 18.0904 27.0391 18.1194L25.4868 18.3247C25.3181 17.9001 24.998 17.553 24.5883 17.3505C24.4098 17.266 24.219 17.2102 24.0232 17.1852L21.4622 14.5505V12.6768C23.1607 11.9342 24.2594 10.2574 24.2617 8.4035V6.07057H25.2807C25.508 6.71345 26.1652 7.09896 26.8371 6.98362C27.509 6.86829 28 6.28586 28 5.60412C28 4.92237 27.509 4.33973 26.8371 4.22461C26.1652 4.10928 25.508 4.49479 25.2807 5.13745H24.2617V2.57791C24.2598 1.15783 23.1091 0.00706447 21.689 0.00535583H11.9041C10.484 0.00706447 9.33321 1.15783 9.33151 2.57791V5.13745H8.31252C8.08527 4.49479 7.42788 4.10928 6.75617 4.22461C6.08425 4.33973 5.59302 4.92237 5.59302 5.60412C5.59302 6.28586 6.08425 6.86829 6.75617 6.98362C7.42788 7.09896 8.08527 6.71345 8.31252 6.07057H9.33151V8.4035V8.4445C7.72347 8.68948 6.53469 10.0709 6.53191 11.6975V12.6815C5.69895 12.9038 4.96253 13.3948 4.43713 14.0785L3.6392 15.0456C3.48371 15.2338 3.38098 15.4601 3.34211 15.7011C3.29064 15.7073 3.23895 15.7073 3.18769 15.7175C2.21826 15.9151 1.57496 16.8394 1.72681 17.817L0.28366 18.4306C0.0792647 18.5177 -0.0354273 18.7369 0.00985153 18.9545L0.277039 20.2469ZM10.4979 23.3337C11.2734 23.3346 11.985 23.7628 12.3492 24.4475C12.3492 24.4535 12.3571 24.4582 12.3598 24.4642C12.4799 24.6934 12.5561 24.9431 12.5847 25.2H8.41077C8.43939 24.9471 8.51371 24.7015 8.63054 24.4755L8.63481 24.4657C8.99597 23.7703 9.71424 23.3339 10.4979 23.3337ZM12.5973 27.0662H8.39817C8.14059 27.0662 7.93171 26.8574 7.93171 26.5998C7.93171 26.342 8.14059 26.1331 8.39817 26.1331H12.5973C12.8551 26.1331 13.064 26.342 13.064 26.5998C13.064 26.8574 12.8551 27.0662 12.5973 27.0662ZM13.9971 19.1346C13.7393 19.1346 13.5305 18.9257 13.5305 18.6681V15.4021C13.5305 15.1445 13.7393 14.9356 13.9971 14.9356H20.529V19.1346H13.9971ZM18.896 23.3337C19.965 23.335 20.8629 24.1381 20.9831 25.2H16.8091C16.8377 24.9433 16.914 24.6942 17.0336 24.4653C17.0364 24.4587 17.0419 24.454 17.0447 24.4475C17.4088 23.7628 18.1207 23.3346 18.896 23.3337ZM20.9957 27.0662H16.7965C16.5389 27.0662 16.3301 26.8574 16.3301 26.5998C16.3301 26.342 16.5389 26.1331 16.7965 26.1331H20.9957C21.2533 26.1331 21.4622 26.342 21.4622 26.5998C21.4622 26.8574 21.2533 27.0662 20.9957 27.0662ZM24.6479 18.7245C24.7918 19.1457 24.6182 19.61 24.2331 19.8334C23.8483 20.0568 23.3589 19.9771 23.0646 19.6431C22.7705 19.3091 22.7532 18.8135 23.0234 18.4599C23.2936 18.1062 23.7761 17.9923 24.1759 18.1884C24.3986 18.2967 24.5687 18.4898 24.6479 18.7245ZM22.9053 17.377C22.5512 17.5579 22.265 17.8484 22.0899 18.2053C22.051 18.2886 22.0187 18.3749 21.9931 18.4633L21.4622 18.1171V15.892L22.9053 17.377ZM26.5945 5.13745C26.8522 5.13745 27.0611 5.34633 27.0611 5.60412C27.0611 5.86169 26.8522 6.07057 26.5945 6.07057C26.3369 6.07057 26.128 5.86169 26.128 5.60412C26.128 5.34633 26.3369 5.13745 26.5945 5.13745ZM6.99858 6.07057C6.74079 6.07057 6.53191 5.86169 6.53191 5.60412C6.53191 5.34633 6.74079 5.13745 6.99858 5.13745C7.25616 5.13745 7.46504 5.34633 7.46504 5.60412C7.46504 5.86169 7.25616 6.07057 6.99858 6.07057ZM10.2646 2.57791C10.2655 1.67277 10.9989 0.939337 11.9041 0.938482H21.689C22.5941 0.939337 23.3276 1.67277 23.3286 2.57791V8.4035C23.3263 10.4639 21.6565 12.1339 19.5959 12.136H13.9971C11.9365 12.1339 10.2668 10.4639 10.2646 8.4035V2.57791ZM5.15604 14.6729C5.61011 14.0537 6.29377 13.6428 7.05369 13.5326C7.14125 13.5226 7.22946 13.5174 7.31767 13.5172C7.85738 13.5251 8.3909 13.6308 8.89282 13.8293C9.02417 13.8816 9.12263 13.9937 9.15744 14.1306C9.19717 14.2718 9.16833 14.4236 9.07948 14.5403L9.03271 14.5986C8.90734 14.757 8.69397 14.8164 8.50474 14.7462C8.11859 14.5872 7.71044 14.489 7.29439 14.455C7.14403 14.4531 6.99474 14.4785 6.85335 14.53C6.46613 14.6808 6.12825 14.9358 5.87687 15.2669L5.07018 16.2363C5.03921 16.2698 5.00376 16.2989 4.96467 16.3226C4.85617 16.1938 4.73059 16.0802 4.59155 15.9853C4.48988 15.9189 4.38224 15.8625 4.27011 15.8164C4.28592 15.7532 4.31539 15.694 4.3564 15.6434L5.15604 14.6729ZM2.78403 17.0327C2.95852 16.7628 3.26031 16.6026 3.58175 16.6094C3.90297 16.6162 4.19771 16.7892 4.36067 17.0663V17.0697C4.54328 17.3755 4.5358 17.7587 4.34145 18.0573C4.05803 18.4878 3.47923 18.6072 3.04865 18.3238C2.61808 18.0404 2.49869 17.4614 2.78211 17.0308L2.78403 17.0327Z" fill="#3867D6"/>
</g>
<defs>
<clipPath id="clip0">
<rect width="28" height="28" fill="white"/>
</clipPath>
</defs>
</svg>
